# xmcd CD database file
#
# Track frame offsets:
#	150
#	18049
#	36463
#	54367
#
# Disc length: 967 seconds
#
# Revision: 5
# Processed by: cddbd v1.5.2PL0 Copyright (c) Steve Scherf et al.
# Submitted via: CDex 1.70beta3
#
DISCID=2703c504
DTITLE=i☆Ris - ミラクル☆パラダイス[CD+DVD]
DYEAR=2014
DGENRE=Anime
TTITLE0=ミラクル☆パラダイス
TTITLE1=ココロノヲト
TTITLE2=ミラクル☆パラダイス (Instrumental)
TTITLE3=ココロノヲト (Instrumental)
EXTD=YEAR: 2014
EXTT0=
EXTT1=
EXTT2=
EXTT3=
PLAYORDER=
